# xmcd
# Copyright (C) 1995-1998 Ti Kan
#
# Track frame offsets:
#       150
#       14222
#       29931
#       57375
#
# Disc length: 2252 seconds
#
# Revision: 1
# Processed by: cddbd v1.4PL0 Copyright (c) Steve Scherf et al.
# Submitted via: CD-Transfer v1.0
#
DISCID=3b08ca04
DTITLE=Horizon - Zahltag
DYEAR=2001
DGENRE=
TTITLE0=Zahltag
TTITLE1=Wäge Dir
TTITLE2=Verbi
TTITLE3=Data Track
EXTD=
EXTT0=
EXTT1=
EXTT2=
EXTT3=
PLAYORDER=
